/* XPM */
static char * left_active_xpm[] = {
"8 17 4 1",
" 	c None",
".	c #5284BC",
"+	c #6BADF6",
"@	c #5B93D1",
".++++++@",
".++++++@",
".++++++@",
".++++++@",
".++++++@",
".++++++@",
".++++++@",
".++++++@",
".++++++@",
".++++++@",
".++++++@",
".++++++@",
".++++++@",
".++++++@",
".++++++@",
".++++++@",
".++++++@"};
