/* XPM */
static char * menu_prelight_xpm[] = {
"26 31 4 1",
" 	c None",
".	c #5284BC",
"+	c #6BADF6",
"@	c #5B93D1",
"..........................",
"++++++++++++++++++++++++++",
"++++++++++++++++++++++++++",
"++++++++++++++++++++++++++",
"++++++++++++++++++++++++++",
"++++++++++++++++++++++++++",
"++++++++++++++++++++++++++",
"++++++++++++++++++++++++++",
"++++++++++++++++++++++++++",
"++++++++++++++++++++++++++",
"++++++++++++++++++++++++++",
"++++++++++++++++++++++++++",
"++++++++++++++++++++++++++",
"++++++++++++++++++++++++++",
"++++++++++++++++++++++++++",
"++++++++++++++++++++++++++",
"++++++++++++++++++++++++++",
"++++++++++++++++++++++++++",
"++++++++++++++++++++++++++",
"++++++++++++++++++++++++++",
"++++++++++++++++++++++++++",
"++++++++++++++++++++++++++",
"++++++++++++++++++++++++++",
"++++++++++++++++++++++++++",
"++++++++++++++++++++++++++",
"++++++++++++++++++++++++++",
"++++++++++++++++++++++++++",
"++++++++++++++++++++++++++",
"++++++++++++++++++++++++++",
"++++++++++++++++++++++++++",
"@@@@@@@@@@@@@@@@@@@@@@@@@@"};
