/* XPM */
static char * bottom_right_active_xpm[] = {
"23 7 4 1",
" 	c None",
".	c #3665B3",
"+	c #5284BC",
"@	c #5B93D1",
"......................+",
"......................+",
"......................+",
"......................+",
"......................+",
"......................+",
"@@@@@@@@@@@@@@@@@@@@@@+"};
