/* XPM */
static char * bottom_right_inactive_xpm[] = {
"23 7 3 1",
" 	c None",
".	c #EBEBEB",
"+	c #D3D3D3",
"......................+",
"......................+",
"......................+",
"......................+",
"......................+",
"......................+",
"+++++++++++++++++++++++"};
