/* XPM */
static char * close_prelight_xpm[] = {
"21 21 3 1",
" 	c None",
".	c #C72D2D",
"+	c #FFFFFF",
".....................",
".....................",
".....................",
".....................",
".....................",
".....................",
".....................",
".......++....++......",
"........++..++.......",
".........++++........",
"..........++.........",
".........++++........",
"........++..++.......",
".......++....++......",
".....................",
".....................",
".....................",
".....................",
".....................",
".....................",
"....................."};
