/* XPM */
static char * close_active_xpm[] = {
"21 21 4 1",
" 	c None",
".	c #C72D2D",
"+	c #C75050",
"@	c #FFFFFF",
".....................",
"++++++++++++++++++++.",
"++++++++++++++++++++.",
"++++++++++++++++++++.",
"++++++++++++++++++++.",
"++++++++++++++++++++.",
"++++++++++++++++++++.",
"+++++++@@++++@@+++++.",
"++++++++@@++@@++++++.",
"+++++++++@@@@+++++++.",
"++++++++++@@++++++++.",
"+++++++++@@@@+++++++.",
"++++++++@@++@@++++++.",
"+++++++@@++++@@+++++.",
"++++++++++++++++++++.",
"++++++++++++++++++++.",
"++++++++++++++++++++.",
"++++++++++++++++++++.",
"++++++++++++++++++++.",
"++++++++++++++++++++.",
"++++++++++++++++++++."};
