/* XPM */
static char * hide_inactive_xpm[] = {
"21 21 5 1",
" 	c None",
".	c #D3D3D3",
"+	c #EBEBEB",
"@	c #FFFFFF",
"#	c #DADADA",
".....................",
".++++++++++++++++++++",
".++++++++++++++++++++",
".++++++++++++++++++++",
".++++++++++++++++++++",
".+++++@@@@@@@@@@@++++",
".+++++@@@@@@@@@@@++++",
".+++++@@@@@@@@@@@++++",
".+++++@+++++++++@++++",
".+++++@+++++++++@++++",
".+++++@+++++++++@++++",
".+++++@+++++++++@++++",
".+++++@+++++++++@++++",
".+++++@+++++++++@++++",
".+++++@+++++++++@++++",
".+++++@@@@@@@@@@@++++",
".++++++++++++++++++++",
".++++++++++++++++++++",
".++++++++++++++++++++",
".++++++++++++++++++++",
".####################"};
