/* XPM */
static char * hide_prelight_xpm[] = {
"21 21 3 1",
" 	c None",
".	c #3665B3",
"+	c #FFFFFF",
".....................",
".....................",
".....................",
".....................",
".....................",
"......+++++++++++....",
"......+++++++++++....",
"......+++++++++++....",
"......+.........+....",
"......+.........+....",
"......+.........+....",
"......+.........+....",
"......+.........+....",
"......+.........+....",
"......+.........+....",
"......+++++++++++....",
".....................",
".....................",
".....................",
".....................",
"....................."};
