/* XPM */
static char * bottom_inactive_xpm[] = {
"19 7 3 1",
" 	c None",
".	c #EBEBEB",
"+	c #D3D3D3",
"...................",
"...................",
"...................",
"...................",
"...................",
"...................",
"+++++++++++++++++++"};
