/* XPM */
static char * bottom_active_xpm[] = {
"19 7 3 1",
" 	c None",
".	c #6BADF6",
"+	c #5B93D1",
"...................",
"...................",
"...................",
"...................",
"...................",
"...................",
"+++++++++++++++++++"};
