/* XPM */
static char * bottom_left_inactive_xpm[] = {
"23 7 3 1",
" 	c None",
".	c #D3D3D3",
"+	c #EBEBEB",
".++++++++++++++++++++++",
".++++++++++++++++++++++",
".++++++++++++++++++++++",
".++++++++++++++++++++++",
".++++++++++++++++++++++",
".++++++++++++++++++++++",
"......................."};
