/* XPM */
static char * bottom_left_active_xpm[] = {
"23 7 4 1",
" 	c None",
".	c #5284BC",
"+	c #3665B3",
"@	c #5B93D1",
".++++++++++++++++++++++",
".++++++++++++++++++++++",
".++++++++++++++++++++++",
".++++++++++++++++++++++",
".++++++++++++++++++++++",
".++++++++++++++++++++++",
"@@@@@@@@@@@@@@@@@@@@@@@"};
