/* XPM */
static char * bottom_active_xpm[] = {
"17 8 4 1",
" 	c None",
".	c #5B93D1",
"+	c #6BADF6",
"@	c #5284BC",
".................",
"+++++++++++++++++",
"+++++++++++++++++",
"+++++++++++++++++",
"+++++++++++++++++",
"+++++++++++++++++",
"+++++++++++++++++",
"@@@@@@@@@@@@@@@@@"};
