/* XPM */
static char * bottom_inactive_xpm[] = {
"17 8 4 1",
" 	c None",
".	c #DADADA",
"+	c #EBEBEB",
"@	c #D3D3D3",
".................",
"+++++++++++++++++",
"+++++++++++++++++",
"+++++++++++++++++",
"+++++++++++++++++",
"+++++++++++++++++",
"+++++++++++++++++",
"@@@@@@@@@@@@@@@@@"};
