/* XPM */
static char * close_pressed_xpm[] = {
"45 31 6 1",
" 	c None",
".	c #5284BC",
"+	c #721A1A",
"@	c #FFFFFF",
"#	c #6BADF6",
"$	c #5B93D1",
".............................................",
"+++++++++++++++++++++++++++++++++++++++++++++",
"+++++++++++++++++++++++++++++++++++++++++++++",
"+++++++++++++++++++++++++++++++++++++++++++++",
"+++++++++++++++++++++++++++++++++++++++++++++",
"+++++++++++++++++++++++++++++++++++++++++++++",
"+++++++++++++++++++++++++++++++++++++++++++++",
"+++++++++++++++++++++++++++++++++++++++++++++",
"+++++++++++++++++++@@++++@@++++++++++++++++++",
"++++++++++++++++++++@@++@@+++++++++++++++++++",
"+++++++++++++++++++++@@@@++++++++++++++++++++",
"++++++++++++++++++++++@@+++++++++++++++++++++",
"+++++++++++++++++++++@@@@++++++++++++++++++++",
"++++++++++++++++++++@@++@@+++++++++++++++++++",
"+++++++++++++++++++@@++++@@++++++++++++++++++",
"+++++++++++++++++++++++++++++++++++++++++++++",
"+++++++++++++++++++++++++++++++++++++++++++++",
"+++++++++++++++++++++++++++++++++++++++++++++",
"+++++++++++++++++++++++++++++++++++++++++++++",
"+++++++++++++++++++++++++++++++++++++++++++++",
"+++++++++++++++++++++++++++++++++++++++++++++",
"#############################################",
"#############################################",
"#############################################",
"#############################################",
"#############################################",
"#############################################",
"#############################################",
"#############################################",
"#############################################",
"$$$$$$$$$$$$$$$$$$$$$$$$$$$$$$$$$$$$$$$$$$$$$"};
