/* XPM */
static char * left_inactive_xpm[] = {
"8 17 4 1",
" 	c None",
".	c #D3D3D3",
"+	c #EBEBEB",
"@	c #DADADA",
".++++++@",
".++++++@",
".++++++@",
".++++++@",
".++++++@",
".++++++@",
".++++++@",
".++++++@",
".++++++@",
".++++++@",
".++++++@",
".++++++@",
".++++++@",
".++++++@",
".++++++@",
".++++++@",
".++++++@"};
