/* XPM */
static char * maximize_toggled_active_xpm[] = {
"26 31 5 1",
" 	c None",
".	c #5284BC",
"+	c #6BADF6",
"@	c #282828",
"#	c #5B93D1",
"..........................",
"++++++++++++++++++++++++++",
"++++++++++++++++++++++++++",
"++++++++++++++++++++++++++",
"++++++++++++++++++++++++++",
"+++++++++@@@@@@@@@++++++++",
"+++++++++++++++++@++++++++",
"++++++++@@@@@@@@+@++++++++",
"++++++++@@@@@@@@+@++++++++",
"++++++++@++++++@+@++++++++",
"++++++++@++++++@+@++++++++",
"++++++++@++++++@+@++++++++",
"++++++++@++++++@+@++++++++",
"++++++++@++++++@+@++++++++",
"++++++++@@@@@@@@++++++++++",
"++++++++++++++++++++++++++",
"++++++++++++++++++++++++++",
"++++++++++++++++++++++++++",
"++++++++++++++++++++++++++",
"++++++++++++++++++++++++++",
"++++++++++++++++++++++++++",
"++++++++++++++++++++++++++",
"++++++++++++++++++++++++++",
"++++++++++++++++++++++++++",
"++++++++++++++++++++++++++",
"++++++++++++++++++++++++++",
"++++++++++++++++++++++++++",
"++++++++++++++++++++++++++",
"++++++++++++++++++++++++++",
"++++++++++++++++++++++++++",
"##########################"};
