/* XPM */
static char * maximize_prelight_xpm[] = {
"26 31 7 1",
" 	c None",
".	c #5284BC",
"+	c #6BADF6",
"@	c #3665B3",
"#	c #3665B4",
"$	c #FFFFFF",
"%	c #5B93D1",
"..........................",
"+@@@@@@@@@@@@@@@@@@@@@@@#+",
"+@@@@@@@@@@@@@@@@@@@@@@@#+",
"+@@@@@@@@@@@@@@@@@@@@@@@#+",
"+@@@@@@@@@@@@@@@@@@@@@@@#+",
"+@@@@@@@@@@@@@@@@@@@@@@@#+",
"+@@@@@@@@@@@@@@@@@@@@@@@#+",
"+@@@@@@@$$$$$$$$$$@@@@@@#+",
"+@@@@@@@$$$$$$$$$$@@@@@@#+",
"+@@@@@@@$@@@@@@@@$@@@@@@#+",
"+@@@@@@@$@@@@@@@@$@@@@@@#+",
"+@@@@@@@$@@@@@@@@$@@@@@@#+",
"+@@@@@@@$@@@@@@@@$@@@@@@#+",
"+@@@@@@@$@@@@@@@@$@@@@@@#+",
"+@@@@@@@$$$$$$$$$$@@@@@@#+",
"+@@@@@@@@@@@@@@@@@@@@@@@#+",
"+@@@@@@@@@@@@@@@@@@@@@@@#+",
"+@@@@@@@@@@@@@@@@@@@@@@@#+",
"+@@@@@@@@@@@@@@@@@@@@@@@#+",
"+@@@@@@@@@@@@@@@@@@@@@@@#+",
"+@@@@@@@@@@@@@@@@@@@@@@@#+",
"++++++++++++++++++++++++++",
"++++++++++++++++++++++++++",
"++++++++++++++++++++++++++",
"++++++++++++++++++++++++++",
"++++++++++++++++++++++++++",
"++++++++++++++++++++++++++",
"++++++++++++++++++++++++++",
"++++++++++++++++++++++++++",
"++++++++++++++++++++++++++",
"%%%%%%%%%%%%%%%%%%%%%%%%%%"};
