/* XPM */
static char * maximize_pressed_xpm[] = {
"26 31 6 1",
" 	c None",
".	c #5284BC",
"+	c #6BADF6",
"@	c #2F589C",
"#	c #FFFFFF",
"$	c #5B93D1",
"..........................",
"+@@@@@@@@@@@@@@@@@@@@@@@@+",
"+@@@@@@@@@@@@@@@@@@@@@@@@+",
"+@@@@@@@@@@@@@@@@@@@@@@@@+",
"+@@@@@@@@@@@@@@@@@@@@@@@@+",
"+@@@@@@@@@@@@@@@@@@@@@@@@+",
"+@@@@@@@@@@@@@@@@@@@@@@@@+",
"+@@@@@@@##########@@@@@@@+",
"+@@@@@@@##########@@@@@@@+",
"+@@@@@@@#@@@@@@@@#@@@@@@@+",
"+@@@@@@@#@@@@@@@@#@@@@@@@+",
"+@@@@@@@#@@@@@@@@#@@@@@@@+",
"+@@@@@@@#@@@@@@@@#@@@@@@@+",
"+@@@@@@@#@@@@@@@@#@@@@@@@+",
"+@@@@@@@##########@@@@@@@+",
"+@@@@@@@@@@@@@@@@@@@@@@@@+",
"+@@@@@@@@@@@@@@@@@@@@@@@@+",
"+@@@@@@@@@@@@@@@@@@@@@@@@+",
"+@@@@@@@@@@@@@@@@@@@@@@@@+",
"+@@@@@@@@@@@@@@@@@@@@@@@@+",
"+@@@@@@@@@@@@@@@@@@@@@@@@+",
"++++++++++++++++++++++++++",
"++++++++++++++++++++++++++",
"++++++++++++++++++++++++++",
"++++++++++++++++++++++++++",
"++++++++++++++++++++++++++",
"++++++++++++++++++++++++++",
"++++++++++++++++++++++++++",
"++++++++++++++++++++++++++",
"++++++++++++++++++++++++++",
"$$$$$$$$$$$$$$$$$$$$$$$$$$"};
