/* XPM */
static char * right_inactive_xpm[] = {
"8 17 4 1",
" 	c None",
".	c #DADADA",
"+	c #EBEBEB",
"@	c #D3D3D3",
".++++++@",
".++++++@",
".++++++@",
".++++++@",
".++++++@",
".++++++@",
".++++++@",
".++++++@",
".++++++@",
".++++++@",
".++++++@",
".++++++@",
".++++++@",
".++++++@",
".++++++@",
".++++++@",
".++++++@"};
