/* XPM */
static char * title_3_inactive_xpm[] = {
"8 31 4 1",
" 	c None",
".	c #D3D3D3",
"+	c #EBEBEB",
"@	c #DADADA",
"........",
"++++++++",
"++++++++",
"++++++++",
"++++++++",
"++++++++",
"++++++++",
"++++++++",
"++++++++",
"++++++++",
"++++++++",
"++++++++",
"++++++++",
"++++++++",
"++++++++",
"++++++++",
"++++++++",
"++++++++",
"++++++++",
"++++++++",
"++++++++",
"++++++++",
"++++++++",
"++++++++",
"++++++++",
"++++++++",
"++++++++",
"++++++++",
"++++++++",
"++++++++",
"@@@@@@@@"};
